<svg width="502" height="418" viewBox="0 0 502 418" fill="none" xmlns="http://www.w3.org/2000/svg">
<path d="M221.8 0C208.5 37 199.5 75.4 187.9 112.9C187.3 114.8 187.2 115 189.3 115.1C198 115.4 204.4 110.5 208.7 104.3C213.9 96.8 217.1 87.9 221 79.5C227.3 60.9 252.9 53.8 262.1 73.8C269 90.2 249.2 107.3 236.3 95.6C227.5 87.6 237.9 72.3 247 67.6C220.9 62.2 225.8 108.3 199.3 117.8C262.3 124.7 215.9 169.6 231.3 178.5C246.8 177 244.1 155 254.6 147.1C256 156.7 250 165.9 246.7 174.6C239.5 191.3 202.1 198 201.1 174.7C200.5 157.4 218.6 126.5 193.6 121.2C184.8 118.8 185.9 118.3 183.1 127.5C177.8 145 172.9 162.7 168 180.3C166.9 184.4 165.2 186.6 160.3 186.1C156.5 184.4 135.2 189 138.3 183.1C153 133.6 168.1 84.1 182.8 34.6C186 17.3 184.7 16.3 168 13C168.7 9.8 171.2 9.1 174 9C190.8 9.7 206.2 4 221.7 0" fill="black"/>
<path d="M0 183.3C8.1 168.4 10.3 152.3 14 136.1C14.2 133.3 16.8 132.3 18.8 131C21.5 137.5 17.5 144.6 18.1 151.3C16.6 179.6 49 190.1 72.2 182.5C83.1 178.7 87.2 170.6 87.9 161.3C90.1 130.8 60.3 113.4 45.3 90.5C11.8 42.9 75.6 0.600044 119.1 22.1C146.8 41.6 133.9 20.8 146.1 17C145.3 29.2 139.7 40.3 136.5 52C134.8 57.6 135.3 63.9 130.5 68C127.3 60 132.2 52.1 129.1 43.8C122.6 14.5 68.7 13.4 66.8 46.2C67 79.8 104.2 96 118.5 123.4C140.2 164.6 93.5 191.5 57.1 189.8C30.5 193.4 14.2 163.6 7 181.9C5.6 185 4.4 188.2 0.3 189C0 187.2 0 185.3 0 183.3Z" fill="black"/>
<path d="M379 197C391.6 150.7 404.5 105.1 417.8 59.3001C411.8 64.8001 409.7 73.3001 404.9 79.8001C397.3 89.3001 390.2 101.1 379.4 106.9C379.5 97.4001 389.9 92.6001 394.4 85.0001C401.2 75.6001 407.9 66.0001 413.9 56.1001C431.1 20.1001 420.8 36.7001 455.6 25.1001C449.4 49.3001 441.6 73.1001 434.6 97.0001C437 96.4001 437.8 93.8001 439 91.8001C444 81.6001 449.8 72.1001 460.2 66.3001C508.3 44.6001 507.5 110.5 492.8 138.7C482.2 168.2 448.9 202.4 415.7 185C413.6 184.3 412.9 180.4 411.1 180.5C408.9 188.7 406.5 196.9 404.4 205.2C398.5 222.2 411.7 221.8 424 225.3C420.8 231.1 415.4 228 410.2 228.1C391.9 227.1 372.9 229.4 355 227.9C356.4 226.6 357.6 224.4 359.1 224.2C373.5 223.7 375.9 208.3 379 197ZM442 176.5C451.4 166.5 457.6 154.7 462.5 142C467.6 130.5 483.5 70.1001 461.3 73.2001C430.9 93.7001 425.5 136.2 415 169.1C410.8 186.1 433.2 185.6 442 176.5Z" fill="black"/>
<path d="M297.8 88.8001C308.9 77.1001 321.2 68.0001 336.7 63.7001C352 58.7001 377.7 62.9001 373.6 84.0001C365.7 116.2 330 122.9 304.4 136C298 137.5 301.1 160 301.5 165.6C303.5 176 313.5 178.4 323 176.5C341.6 174.1 348.8 155.7 356.2 156.7C343.9 182.1 305.2 201.5 279.8 181.9C254.3 157.5 279.7 111.1 297.7 88.8001M346 95.5001C356.5 66.8001 348.3 55.9001 325.5 81.4001C313.9 95.9001 307.5 113.2 302.4 130.9C321.2 126.1 337.3 113.9 346 95.5001Z" fill="black"/>
<path d="M37.9835 418C38.9483 412.628 34.2117 400.386 42.6323 400.386C46.5795 399.065 56.9298 403.468 56.3158 397.127C56.2281 362.339 56.2281 327.55 56.3158 292.762C56.3158 289.855 55.4387 289.327 52.7195 289.327C42.8078 289.503 32.896 289.591 22.9842 289.327C19.0371 289.239 18.16 290.648 18.4231 294.083C19.3003 309.407 19.0371 308.527 4.30102 307.822C1.93272 307.646 -0.084713 306.765 0.00300172 303.418C0.266146 293.819 0.178431 284.307 0.00300172 274.795C-0.084713 271.36 1.75728 270.303 4.56415 270.039C44.1235 269.951 83.7705 270.039 123.33 270.039C129.908 270.039 129.908 270.039 129.908 276.556C129.908 285.628 129.821 294.699 129.996 303.859C130.084 306.941 128.68 308.086 125.786 307.91C108.594 307.822 111.576 309.319 111.576 294.083C111.664 290.031 110.524 289.151 106.664 289.327C97.6294 289.591 88.5948 289.679 79.5602 289.327C75.2622 289.151 74.5605 291 74.6482 294.523C74.6482 327.99 74.7359 361.458 74.5605 394.925C74.5605 398.976 75.5253 400.826 79.9988 400.474C96.9277 398.624 93.0683 404.085 93.0683 417.824C74.8236 418 56.4912 418 38.0712 418" fill="black"/>
<path d="M371.474 418C372.444 412.628 367.683 400.386 376.146 400.386C380.29 399.153 389.722 403.381 389.81 397.04C389.81 362.252 389.81 327.465 389.81 292.678C389.546 286.513 380.113 290.476 375.97 289.419C367.771 290.212 372.884 279.555 371.209 274.8C370.681 270.925 372.973 270.132 375.705 270.132C391.221 269.956 406.825 269.956 422.428 270.132C430.274 269.604 425.425 280.436 426.924 285.28C427.365 295.408 408.059 283.695 408.235 293.03C409.822 297.61 404.885 308.178 412.29 308.002C427.982 307.826 443.674 308.002 459.454 307.826C462.804 307.826 464.302 308.53 463.95 312.141C462.804 317.425 466.859 327.201 458.308 326.408C443.145 326.408 428.07 326.496 412.907 326.32C409.293 326.32 408.235 327.289 408.235 330.988C408.411 352.565 408.411 374.142 408.235 395.719C408.588 409.81 430.01 386.383 426.836 417.824C408.499 418 390.075 418 371.562 418" fill="black"/>
<path d="M445.425 417.888C444.807 403.931 442.687 398.348 459.646 400.528C463.975 401.052 464.681 399.22 464.681 395.382C464.504 374.445 464.681 353.508 464.505 332.659C464.151 324.721 474.221 327.512 479.256 327.338C482.171 327.687 483.142 330.217 483.142 332.921C482.966 354.032 482.612 375.143 482.612 396.341C482.612 398.26 482.612 401.052 486.675 400.616C491.445 400.005 496.392 400.441 501.515 400.441C500.632 404.192 504.43 418.673 499.042 417.976C481.199 417.888 463.445 417.888 445.425 417.888Z" fill="black"/>
<path d="M279.46 418C280.337 411.809 275.425 398.979 285.336 400.056C294.018 399.966 302.613 400.056 311.207 400.056C333.22 398.172 335.851 407.413 334.448 385.97C334.273 382.74 336.027 381.663 338.658 381.215C351.988 380.676 353.304 380.048 352.953 394.224C352.953 402.03 352.953 409.746 352.953 417.821C328.572 418 304.104 418 279.547 418" fill="black"/>
<path d="M168.429 418C169.216 410.969 164.229 398.419 175.605 400.199C190.743 400.199 205.882 400.199 220.933 400.199C240.623 401.356 242.898 394.058 241.76 417.822C217.433 418 193.018 418 168.516 418" fill="black"/>
<path d="M212.921 383.123C198.741 383.123 185.086 383.211 171.343 383.036C164.34 382.685 168.279 392.671 167.491 397.051C169.067 403.795 149.284 403.27 149.197 397.752C148.934 375.415 148.934 353.079 149.197 330.743C149.197 329.517 151.123 327.327 152.261 327.239C156.287 328.115 168.367 325.4 167.404 331.619C167.404 340.904 167.491 350.276 167.316 359.649C167.316 362.627 167.929 363.941 171.343 363.941C187.712 363.765 204.08 363.765 220.362 363.941C223.425 364.028 223.513 362.802 223.425 360.524C223.338 351.152 223.688 341.78 223.25 332.495C223.075 328.115 226.489 326.889 229.815 327.064C241.807 326.801 241.807 326.801 241.807 338.539C241.807 352.028 241.72 365.43 241.895 378.831C243.821 386.802 218.699 381.81 212.921 383.123Z" fill="black"/>
<path d="M334.532 338.554C334.532 326.906 334.532 326.906 323.886 326.906C311.161 326.906 298.524 326.906 285.799 326.906C280.779 326.906 280 326.01 280 320.903C280 308.09 280 308.09 292.205 308.09C310.902 308.09 329.598 308.179 348.382 308C351.671 308 352.883 308.806 352.796 312.391C351.238 317.856 356.086 348.679 349.074 345.812C346.391 345.543 343.621 345.723 340.938 345.723C334.1 345.723 334.446 346.708 334.532 338.554Z" fill="black"/>
<path d="M264.937 327.075C269.304 328.549 279.175 325.34 278.913 331.325C278.913 353.009 278.825 374.607 279 396.291C278.651 403.577 269.479 400.021 264.762 400.802C261.618 400.888 260.57 399.24 260.57 396.291C262.579 386.49 255.765 324.559 264.937 327.075Z" fill="black"/>
<path d="M189.01 326.663C182.864 325.275 167.716 330.653 168.149 321.545C169.62 317.555 165.206 308.534 171.525 308.448C178.19 310.009 226.75 304.631 222.768 312.004C221.73 317.122 225.798 327.357 217.575 326.663C208.14 326.663 198.791 326.663 189.01 326.663Z" fill="black"/>
</svg>
